<?xml version="1.0" encoding="utf-8"?>
<!-- Generator: Adobe Illustrator 15.0.2, SVG Export Plug-In . SVG Version: 6.00 Build 0)  -->
<!DOCTYPE svg PUBLIC "-//W3C//DTD SVG 1.1//EN" "http://www.w3.org/Graphics/SVG/1.1/DTD/svg11.dtd">
<svg version="1.1" id="Layer_1" xmlns="http://www.w3.org/2000/svg" xmlns:xlink="http://www.w3.org/1999/xlink" x="0px" y="0px"
	 width="25px" height="46.131px" viewBox="0 0 25 46.131" enable-background="new 0 0 25 46.131" xml:space="preserve">
<g>
	<g>
		<g>
			<defs>
				<polygon id="SVGID_1_" points="3.494,22.898 12.389,5.107 21.266,22.863 21.243,22.896 21.268,22.931 12.389,40.69 				"/>
			</defs>
			<clipPath id="SVGID_2_">
				<use xlink:href="#SVGID_1_"  overflow="visible"/>
			</clipPath>
			<g clip-path="url(#SVGID_2_)">
				<rect x="19.386" y="-6.017" fill="none" width="2.627" height="46.882"/>
				<g>
					<polygon fill="none" points="19.386,40.865 22.013,40.865 22.013,-6.017 19.386,-6.017 					"/>
					
						<line fill="none" stroke="#61BD62" stroke-width="1.0506" stroke-miterlimit="10" x1="19.911" y1="-6.017" x2="19.911" y2="40.865"/>
					<line fill="none" x1="22.013" y1="-6.017" x2="22.013" y2="40.865"/>
				</g>
			</g>
			<g clip-path="url(#SVGID_2_)">
				<rect x="16.759" y="-6.017" fill="none" width="2.627" height="46.882"/>
				<g>
					<polygon fill="none" points="16.759,40.865 19.386,40.865 19.386,-6.017 16.759,-6.017 					"/>
					
						<line fill="none" stroke="#61BD62" stroke-width="1.0506" stroke-miterlimit="10" x1="17.284" y1="-6.017" x2="17.284" y2="40.865"/>
					<line fill="none" x1="19.386" y1="-6.017" x2="19.386" y2="40.865"/>
				</g>
			</g>
			<g clip-path="url(#SVGID_2_)">
				<rect x="14.133" y="-6.017" fill="none" width="2.627" height="46.882"/>
				<g>
					<polygon fill="none" points="14.133,40.865 16.76,40.865 16.76,-6.017 14.133,-6.017 					"/>
					
						<line fill="none" stroke="#61BD62" stroke-width="1.0506" stroke-miterlimit="10" x1="14.658" y1="-6.017" x2="14.658" y2="40.865"/>
					<line fill="none" x1="16.76" y1="-6.017" x2="16.76" y2="40.865"/>
				</g>
			</g>
			<g clip-path="url(#SVGID_2_)">
				<rect x="11.506" y="-6.017" fill="none" width="2.627" height="46.882"/>
				<g>
					<polygon fill="none" points="11.506,40.865 14.133,40.865 14.133,-6.017 11.506,-6.017 					"/>
					
						<line fill="none" stroke="#61BD62" stroke-width="1.0506" stroke-miterlimit="10" x1="12.031" y1="-6.017" x2="12.031" y2="40.865"/>
					<line fill="none" x1="14.133" y1="-6.017" x2="14.133" y2="40.865"/>
				</g>
			</g>
			<g clip-path="url(#SVGID_2_)">
				<rect x="8.879" y="-6.017" fill="none" width="2.626" height="46.882"/>
				<g>
					<polygon fill="none" points="8.879,40.865 11.506,40.865 11.506,-6.017 8.879,-6.017 					"/>
					
						<line fill="none" stroke="#61BD62" stroke-width="1.0506" stroke-miterlimit="10" x1="9.405" y1="-6.017" x2="9.405" y2="40.865"/>
					<line fill="none" x1="11.506" y1="-6.017" x2="11.506" y2="40.865"/>
				</g>
			</g>
			<g clip-path="url(#SVGID_2_)">
				<rect x="6.253" y="-6.017" fill="none" width="2.626" height="46.882"/>
				<g>
					<polygon fill="none" points="6.253,40.865 8.879,40.865 8.879,-6.017 6.253,-6.017 					"/>
					
						<line fill="none" stroke="#61BD62" stroke-width="1.0506" stroke-miterlimit="10" x1="6.778" y1="-6.017" x2="6.778" y2="40.865"/>
					<line fill="none" x1="8.879" y1="-6.017" x2="8.879" y2="40.865"/>
				</g>
			</g>
			<g clip-path="url(#SVGID_2_)">
				<rect x="3.626" y="-6.017" fill="none" width="2.626" height="46.882"/>
				<g>
					<polygon fill="none" points="3.626,40.865 6.253,40.865 6.253,-6.017 3.626,-6.017 					"/>
					
						<line fill="none" stroke="#61BD62" stroke-width="1.0506" stroke-miterlimit="10" x1="4.152" y1="-6.017" x2="4.152" y2="40.865"/>
					<line fill="none" x1="6.253" y1="-6.017" x2="6.253" y2="40.865"/>
				</g>
			</g>
			<g clip-path="url(#SVGID_2_)">
				<rect x="1" y="-6.017" fill="none" width="2.626" height="46.882"/>
				<g>
					<polygon fill="none" points="1,40.865 3.626,40.865 3.626,-6.017 1,-6.017 					"/>
					
						<line fill="none" stroke="#61BD62" stroke-width="1.0506" stroke-miterlimit="10" x1="1.525" y1="-6.017" x2="1.525" y2="40.865"/>
					<line fill="none" x1="3.626" y1="-6.017" x2="3.626" y2="40.865"/>
				</g>
			</g>
		</g>
	</g>
	<g>
		<g>
			<path fill="#62BD63" d="M12.389,6.226l8.301,16.605l-0.047,0.071l0.045,0.068l-8.299,16.604L4.053,22.898L12.389,6.226
				 M12.389,3.989L2.938,22.896H2.935l0.001,0.003l-0.001,0.003h0.003l9.452,18.908l9.451-18.908h0.004l-0.002-0.003l0.002-0.003
				H21.84L12.389,3.989L12.389,3.989z"/>
		</g>
	</g>
</g>
</svg>
