<?xml version="1.0" encoding="utf-8"?>
<!-- Generator: Adobe Illustrator 15.0.2, SVG Export Plug-In . SVG Version: 6.00 Build 0)  -->
<!DOCTYPE svg PUBLIC "-//W3C//DTD SVG 1.1//EN" "http://www.w3.org/Graphics/SVG/1.1/DTD/svg11.dtd">
<svg version="1.1" id="Layer_1" xmlns="http://www.w3.org/2000/svg" xmlns:xlink="http://www.w3.org/1999/xlink" x="0px" y="0px"
	 width="25px" height="46.131px" viewBox="0 0 25 46.131" enable-background="new 0 0 25 46.131" xml:space="preserve">
<g>
	<g>
		<defs>
			<path id="SVGID_1_" d="M20.919,13.231c0-5.222-3.724-9.455-8.317-9.455c-4.594,0-8.317,4.233-8.317,9.455
				c0,0.019,0.002,0.036,0.002,0.054H4.285v19.118h0.012c0.123,5.101,3.79,9.195,8.306,9.195s8.183-4.096,8.305-9.195h0.012V13.286
				h-0.002C20.917,13.268,20.919,13.25,20.919,13.231z"/>
		</defs>
		<clipPath id="SVGID_2_">
			<use xlink:href="#SVGID_1_"  overflow="visible"/>
		</clipPath>
		<g clip-path="url(#SVGID_2_)">
			<rect x="20.245" y="9.009" fill="none" width="2.627" height="46.882"/>
			<g>
				<polygon fill="none" points="20.245,55.892 22.872,55.892 22.872,9.009 20.245,9.009 				"/>
				
					<line fill="none" stroke="#61BD62" stroke-width="1.0506" stroke-miterlimit="10" x1="20.771" y1="9.009" x2="20.771" y2="55.892"/>
				<line fill="none" x1="22.872" y1="9.009" x2="22.872" y2="55.892"/>
			</g>
		</g>
		<g clip-path="url(#SVGID_2_)">
			<rect x="20.245" y="-37.873" fill="none" width="2.627" height="46.882"/>
			<g>
				<polygon fill="none" points="20.245,9.009 22.872,9.009 22.872,-37.873 20.245,-37.873 				"/>
				
					<line fill="none" stroke="#61BD62" stroke-width="1.0506" stroke-miterlimit="10" x1="20.771" y1="-37.873" x2="20.771" y2="9.009"/>
				<line fill="none" x1="22.872" y1="-37.873" x2="22.872" y2="9.009"/>
			</g>
		</g>
		<g clip-path="url(#SVGID_2_)">
			<rect x="17.618" y="9.009" fill="none" width="2.627" height="46.882"/>
			<g>
				<polygon fill="none" points="17.618,55.892 20.245,55.892 20.245,9.009 17.618,9.009 				"/>
				
					<line fill="none" stroke="#61BD62" stroke-width="1.0506" stroke-miterlimit="10" x1="18.144" y1="9.009" x2="18.144" y2="55.892"/>
				<line fill="none" x1="20.245" y1="9.009" x2="20.245" y2="55.892"/>
			</g>
		</g>
		<g clip-path="url(#SVGID_2_)">
			<rect x="17.618" y="-37.873" fill="none" width="2.627" height="46.882"/>
			<g>
				<polygon fill="none" points="17.618,9.009 20.245,9.009 20.245,-37.873 17.618,-37.873 				"/>
				
					<line fill="none" stroke="#61BD62" stroke-width="1.0506" stroke-miterlimit="10" x1="18.144" y1="-37.873" x2="18.144" y2="9.009"/>
				<line fill="none" x1="20.245" y1="-37.873" x2="20.245" y2="9.009"/>
			</g>
		</g>
		<g clip-path="url(#SVGID_2_)">
			<rect x="14.992" y="9.009" fill="none" width="2.627" height="46.882"/>
			<g>
				<polygon fill="none" points="14.992,55.892 17.619,55.892 17.619,9.009 14.992,9.009 				"/>
				
					<line fill="none" stroke="#61BD62" stroke-width="1.0506" stroke-miterlimit="10" x1="15.518" y1="9.009" x2="15.518" y2="55.892"/>
				<line fill="none" x1="17.619" y1="9.009" x2="17.619" y2="55.892"/>
			</g>
		</g>
		<g clip-path="url(#SVGID_2_)">
			<rect x="14.992" y="-37.873" fill="none" width="2.627" height="46.882"/>
			<g>
				<polygon fill="none" points="14.992,9.009 17.619,9.009 17.619,-37.873 14.992,-37.873 				"/>
				
					<line fill="none" stroke="#61BD62" stroke-width="1.0506" stroke-miterlimit="10" x1="15.518" y1="-37.873" x2="15.518" y2="9.009"/>
				<line fill="none" x1="17.619" y1="-37.873" x2="17.619" y2="9.009"/>
			</g>
		</g>
		<g clip-path="url(#SVGID_2_)">
			<rect x="12.365" y="9.009" fill="none" width="2.627" height="46.882"/>
			<g>
				<polygon fill="none" points="12.365,55.892 14.992,55.892 14.992,9.009 12.365,9.009 				"/>
				
					<line fill="none" stroke="#61BD62" stroke-width="1.0506" stroke-miterlimit="10" x1="12.891" y1="9.009" x2="12.891" y2="55.892"/>
				<line fill="none" x1="14.992" y1="9.009" x2="14.992" y2="55.892"/>
			</g>
		</g>
		<g clip-path="url(#SVGID_2_)">
			<rect x="12.365" y="-37.873" fill="none" width="2.627" height="46.882"/>
			<g>
				<polygon fill="none" points="12.365,9.009 14.992,9.009 14.992,-37.873 12.365,-37.873 				"/>
				
					<line fill="none" stroke="#61BD62" stroke-width="1.0506" stroke-miterlimit="10" x1="12.891" y1="-37.873" x2="12.891" y2="9.009"/>
				<line fill="none" x1="14.992" y1="-37.873" x2="14.992" y2="9.009"/>
			</g>
		</g>
		<g clip-path="url(#SVGID_2_)">
			<rect x="9.739" y="9.009" fill="none" width="2.626" height="46.882"/>
			<g>
				<polygon fill="none" points="9.739,55.892 12.365,55.892 12.365,9.009 9.739,9.009 				"/>
				
					<line fill="none" stroke="#61BD62" stroke-width="1.0506" stroke-miterlimit="10" x1="10.264" y1="9.009" x2="10.264" y2="55.892"/>
				<line fill="none" x1="12.365" y1="9.009" x2="12.365" y2="55.892"/>
			</g>
		</g>
		<g clip-path="url(#SVGID_2_)">
			<rect x="9.739" y="-37.873" fill="none" width="2.626" height="46.882"/>
			<g>
				<polygon fill="none" points="9.739,9.009 12.365,9.009 12.365,-37.873 9.739,-37.873 				"/>
				
					<line fill="none" stroke="#61BD62" stroke-width="1.0506" stroke-miterlimit="10" x1="10.264" y1="-37.873" x2="10.264" y2="9.009"/>
				<line fill="none" x1="12.365" y1="-37.873" x2="12.365" y2="9.009"/>
			</g>
		</g>
		<g clip-path="url(#SVGID_2_)">
			<rect x="7.112" y="9.009" fill="none" width="2.626" height="46.882"/>
			<g>
				<polygon fill="none" points="7.112,55.892 9.739,55.892 9.739,9.009 7.112,9.009 				"/>
				
					<line fill="none" stroke="#61BD62" stroke-width="1.0506" stroke-miterlimit="10" x1="7.638" y1="9.009" x2="7.638" y2="55.892"/>
				<line fill="none" x1="9.739" y1="9.009" x2="9.739" y2="55.892"/>
			</g>
		</g>
		<g clip-path="url(#SVGID_2_)">
			<rect x="7.112" y="-37.873" fill="none" width="2.626" height="46.882"/>
			<g>
				<polygon fill="none" points="7.112,9.009 9.739,9.009 9.739,-37.873 7.112,-37.873 				"/>
				
					<line fill="none" stroke="#61BD62" stroke-width="1.0506" stroke-miterlimit="10" x1="7.638" y1="-37.873" x2="7.638" y2="9.009"/>
				<line fill="none" x1="9.739" y1="-37.873" x2="9.739" y2="9.009"/>
			</g>
		</g>
		<g clip-path="url(#SVGID_2_)">
			<rect x="4.486" y="9.009" fill="none" width="2.626" height="46.882"/>
			<g>
				<polygon fill="none" points="4.486,55.892 7.112,55.892 7.112,9.009 4.486,9.009 				"/>
				
					<line fill="none" stroke="#61BD62" stroke-width="1.0506" stroke-miterlimit="10" x1="5.011" y1="9.009" x2="5.011" y2="55.892"/>
				<line fill="none" x1="7.112" y1="9.009" x2="7.112" y2="55.892"/>
			</g>
		</g>
		<g clip-path="url(#SVGID_2_)">
			<rect x="4.486" y="-37.873" fill="none" width="2.626" height="46.882"/>
			<g>
				<polygon fill="none" points="4.486,9.009 7.112,9.009 7.112,-37.873 4.486,-37.873 				"/>
				
					<line fill="none" stroke="#61BD62" stroke-width="1.0506" stroke-miterlimit="10" x1="5.011" y1="-37.873" x2="5.011" y2="9.009"/>
				<line fill="none" x1="7.112" y1="-37.873" x2="7.112" y2="9.009"/>
			</g>
		</g>
		<g clip-path="url(#SVGID_2_)">
			<rect x="1.859" y="9.009" fill="none" width="2.626" height="46.882"/>
			<g>
				<polygon fill="none" points="1.859,55.892 4.486,55.892 4.486,9.009 1.859,9.009 				"/>
				
					<line fill="none" stroke="#61BD62" stroke-width="1.0506" stroke-miterlimit="10" x1="2.385" y1="9.009" x2="2.385" y2="55.892"/>
				<line fill="none" x1="4.486" y1="9.009" x2="4.486" y2="55.892"/>
			</g>
		</g>
		<g clip-path="url(#SVGID_2_)">
			<rect x="1.859" y="-37.873" fill="none" width="2.626" height="46.882"/>
			<g>
				<polygon fill="none" points="1.859,9.009 4.486,9.009 4.486,-37.873 1.859,-37.873 				"/>
				
					<line fill="none" stroke="#61BD62" stroke-width="1.0506" stroke-miterlimit="10" x1="2.385" y1="-37.873" x2="2.385" y2="9.009"/>
				<line fill="none" x1="4.486" y1="-37.873" x2="4.486" y2="9.009"/>
			</g>
		</g>
	</g>
	<path fill="#62BD63" d="M12.603,42.099c-4.662,0-8.441-4.001-8.784-9.195H3.797l-0.012-0.5V13.285
		c0-5.543,3.955-10.009,8.817-10.009s8.817,4.466,8.817,9.955l0.001,19.672h-0.034C21.044,38.098,17.266,42.099,12.603,42.099z
		 M4.785,32.151l0.012,0.24c0.118,4.882,3.546,8.707,7.806,8.707c4.26,0,7.688-3.824,7.805-8.707l0.012-0.483V13.286
		c-0.001-4.993-3.508-9.01-7.818-9.01s-7.817,4.017-7.817,8.955V32.151z"/>
</g>
</svg>
