<?xml version="1.0" encoding="utf-8"?>
<!-- Generator: Adobe Illustrator 15.0.2, SVG Export Plug-In . SVG Version: 6.00 Build 0)  -->
<!DOCTYPE svg PUBLIC "-//W3C//DTD SVG 1.1//EN" "http://www.w3.org/Graphics/SVG/1.1/DTD/svg11.dtd">
<svg version="1.1" id="Layer_1" xmlns="http://www.w3.org/2000/svg" xmlns:xlink="http://www.w3.org/1999/xlink" x="0px" y="0px"
	 width="25px" height="46.131px" viewBox="0 0 25 46.131" enable-background="new 0 0 25 46.131" xml:space="preserve">
<g>
	<g>
		<g>
			<defs>
				<path id="SVGID_1_" d="M17.898,41.075c-3.612,0-8.332-1.702-10.732-5.504c-2.45-3.879-2.135-9.319,0.909-15.736
					c0.384-0.537,3.677-5.444-0.962-9.171C4.91,8.895,3.726,7.118,4.024,6.027c0.282-1.035,1.919-1.481,3.243-1.673
					c0.459-0.066,0.947-0.101,1.448-0.101c2.993,0,7.012,1.207,9.312,4.592c2.213,3.254,2.246,7.845,0.099,13.275
					c-2.942,7.438-0.526,10.373,1.604,12.962c1.119,1.358,2.084,2.53,2.156,4.233c0.014,0.275-0.087,0.521-0.305,0.748
					C20.977,40.698,19.6,41.075,17.898,41.075z"/>
			</defs>
			<clipPath id="SVGID_2_">
				<use xlink:href="#SVGID_1_"  overflow="visible"/>
			</clipPath>
			<g clip-path="url(#SVGID_2_)">
				<rect x="19.999" y="40.119" fill="none" width="2.627" height="46.882"/>
				<g>
					<polygon fill="none" points="19.999,87.001 22.626,87.001 22.626,40.119 19.999,40.119 					"/>
					
						<line fill="none" stroke="#61BD62" stroke-width="1.0506" stroke-miterlimit="10" x1="20.524" y1="40.119" x2="20.524" y2="87.001"/>
					<line fill="none" x1="22.626" y1="40.119" x2="22.626" y2="87.001"/>
				</g>
			</g>
			<g clip-path="url(#SVGID_2_)">
				<rect x="19.999" y="-6.763" fill="none" width="2.627" height="46.882"/>
				<g>
					<polygon fill="none" points="19.999,40.119 22.626,40.119 22.626,-6.763 19.999,-6.763 					"/>
					
						<line fill="none" stroke="#61BD62" stroke-width="1.0506" stroke-miterlimit="10" x1="20.524" y1="-6.763" x2="20.524" y2="40.119"/>
					<line fill="none" x1="22.626" y1="-6.763" x2="22.626" y2="40.119"/>
				</g>
			</g>
			<g clip-path="url(#SVGID_2_)">
				<rect x="17.372" y="40.119" fill="none" width="2.627" height="46.882"/>
				<g>
					<polygon fill="none" points="17.372,87.001 19.999,87.001 19.999,40.119 17.372,40.119 					"/>
					
						<line fill="none" stroke="#61BD62" stroke-width="1.0506" stroke-miterlimit="10" x1="17.897" y1="40.119" x2="17.897" y2="87.001"/>
					<line fill="none" x1="19.999" y1="40.119" x2="19.999" y2="87.001"/>
				</g>
			</g>
			<g clip-path="url(#SVGID_2_)">
				<rect x="17.372" y="-6.763" fill="none" width="2.627" height="46.882"/>
				<g>
					<polygon fill="none" points="17.372,40.119 19.999,40.119 19.999,-6.763 17.372,-6.763 					"/>
					
						<line fill="none" stroke="#61BD62" stroke-width="1.0506" stroke-miterlimit="10" x1="17.897" y1="-6.763" x2="17.897" y2="40.119"/>
					<line fill="none" x1="19.999" y1="-6.763" x2="19.999" y2="40.119"/>
				</g>
			</g>
			<g clip-path="url(#SVGID_2_)">
				<rect x="14.746" y="40.119" fill="none" width="2.627" height="46.882"/>
				<g>
					<polygon fill="none" points="14.746,87.001 17.373,87.001 17.373,40.119 14.746,40.119 					"/>
					
						<line fill="none" stroke="#61BD62" stroke-width="1.0506" stroke-miterlimit="10" x1="15.271" y1="40.119" x2="15.271" y2="87.001"/>
					<line fill="none" x1="17.373" y1="40.119" x2="17.373" y2="87.001"/>
				</g>
			</g>
			<g clip-path="url(#SVGID_2_)">
				<rect x="14.746" y="-6.763" fill="none" width="2.627" height="46.882"/>
				<g>
					<polygon fill="none" points="14.746,40.119 17.373,40.119 17.373,-6.763 14.746,-6.763 					"/>
					
						<line fill="none" stroke="#61BD62" stroke-width="1.0506" stroke-miterlimit="10" x1="15.271" y1="-6.763" x2="15.271" y2="40.119"/>
					<line fill="none" x1="17.373" y1="-6.763" x2="17.373" y2="40.119"/>
				</g>
			</g>
			<g clip-path="url(#SVGID_2_)">
				<rect x="12.119" y="40.119" fill="none" width="2.627" height="46.882"/>
				<g>
					<polygon fill="none" points="12.119,87.001 14.746,87.001 14.746,40.119 12.119,40.119 					"/>
					
						<line fill="none" stroke="#61BD62" stroke-width="1.0506" stroke-miterlimit="10" x1="12.645" y1="40.119" x2="12.645" y2="87.001"/>
					<line fill="none" x1="14.746" y1="40.119" x2="14.746" y2="87.001"/>
				</g>
			</g>
			<g clip-path="url(#SVGID_2_)">
				<rect x="12.119" y="-6.763" fill="none" width="2.627" height="46.882"/>
				<g>
					<polygon fill="none" points="12.119,40.119 14.746,40.119 14.746,-6.763 12.119,-6.763 					"/>
					
						<line fill="none" stroke="#61BD62" stroke-width="1.0506" stroke-miterlimit="10" x1="12.645" y1="-6.763" x2="12.645" y2="40.119"/>
					<line fill="none" x1="14.746" y1="-6.763" x2="14.746" y2="40.119"/>
				</g>
			</g>
			<g clip-path="url(#SVGID_2_)">
				<rect x="9.493" y="40.119" fill="none" width="2.626" height="46.882"/>
				<g>
					<polygon fill="none" points="9.493,87.001 12.119,87.001 12.119,40.119 9.493,40.119 					"/>
					
						<line fill="none" stroke="#61BD62" stroke-width="1.0506" stroke-miterlimit="10" x1="10.018" y1="40.119" x2="10.018" y2="87.001"/>
					<line fill="none" x1="12.119" y1="40.119" x2="12.119" y2="87.001"/>
				</g>
			</g>
			<g clip-path="url(#SVGID_2_)">
				<rect x="9.493" y="-6.763" fill="none" width="2.626" height="46.882"/>
				<g>
					<polygon fill="none" points="9.493,40.119 12.119,40.119 12.119,-6.763 9.493,-6.763 					"/>
					
						<line fill="none" stroke="#61BD62" stroke-width="1.0506" stroke-miterlimit="10" x1="10.018" y1="-6.763" x2="10.018" y2="40.119"/>
					<line fill="none" x1="12.119" y1="-6.763" x2="12.119" y2="40.119"/>
				</g>
			</g>
			<g clip-path="url(#SVGID_2_)">
				<rect x="6.866" y="40.119" fill="none" width="2.626" height="46.882"/>
				<g>
					<polygon fill="none" points="6.866,87.001 9.493,87.001 9.493,40.119 6.866,40.119 					"/>
					
						<line fill="none" stroke="#61BD62" stroke-width="1.0506" stroke-miterlimit="10" x1="7.392" y1="40.119" x2="7.392" y2="87.001"/>
					<line fill="none" x1="9.493" y1="40.119" x2="9.493" y2="87.001"/>
				</g>
			</g>
			<g clip-path="url(#SVGID_2_)">
				<rect x="6.866" y="-6.763" fill="none" width="2.626" height="46.882"/>
				<g>
					<polygon fill="none" points="6.866,40.119 9.493,40.119 9.493,-6.763 6.866,-6.763 					"/>
					
						<line fill="none" stroke="#61BD62" stroke-width="1.0506" stroke-miterlimit="10" x1="7.392" y1="-6.763" x2="7.392" y2="40.119"/>
					<line fill="none" x1="9.493" y1="-6.763" x2="9.493" y2="40.119"/>
				</g>
			</g>
			<g clip-path="url(#SVGID_2_)">
				<rect x="4.24" y="40.119" fill="none" width="2.626" height="46.882"/>
				<g>
					<polygon fill="none" points="4.24,87.001 6.866,87.001 6.866,40.119 4.24,40.119 					"/>
					
						<line fill="none" stroke="#61BD62" stroke-width="1.0506" stroke-miterlimit="10" x1="4.765" y1="40.119" x2="4.765" y2="87.001"/>
					<line fill="none" x1="6.866" y1="40.119" x2="6.866" y2="87.001"/>
				</g>
			</g>
			<g clip-path="url(#SVGID_2_)">
				<rect x="4.24" y="-6.763" fill="none" width="2.626" height="46.882"/>
				<g>
					<polygon fill="none" points="4.24,40.119 6.866,40.119 6.866,-6.763 4.24,-6.763 					"/>
					
						<line fill="none" stroke="#61BD62" stroke-width="1.0506" stroke-miterlimit="10" x1="4.765" y1="-6.763" x2="4.765" y2="40.119"/>
					<line fill="none" x1="6.866" y1="-6.763" x2="6.866" y2="40.119"/>
				</g>
			</g>
			<g clip-path="url(#SVGID_2_)">
				<rect x="1.613" y="40.119" fill="none" width="2.626" height="46.882"/>
				<g>
					<polygon fill="none" points="1.613,87.001 4.24,87.001 4.24,40.119 1.613,40.119 					"/>
					
						<line fill="none" stroke="#61BD62" stroke-width="1.0506" stroke-miterlimit="10" x1="2.139" y1="40.119" x2="2.139" y2="87.001"/>
					<line fill="none" x1="4.24" y1="40.119" x2="4.24" y2="87.001"/>
				</g>
			</g>
			<g clip-path="url(#SVGID_2_)">
				<rect x="1.613" y="-6.763" fill="none" width="2.626" height="46.882"/>
				<g>
					<polygon fill="none" points="1.613,40.119 4.24,40.119 4.24,-6.763 1.613,-6.763 					"/>
					
						<line fill="none" stroke="#61BD62" stroke-width="1.0506" stroke-miterlimit="10" x1="2.139" y1="-6.763" x2="2.139" y2="40.119"/>
					<line fill="none" x1="4.24" y1="-6.763" x2="4.24" y2="40.119"/>
				</g>
			</g>
		</g>
	</g>
	<g>
		<g>
			<path fill="#62BD63" d="M8.715,3.754v1c2.734,0,6.704,1.145,8.898,4.373c2.115,3.111,2.131,7.542,0.047,12.811
				c-3.051,7.709-0.426,10.901,1.686,13.463c1.061,1.289,1.977,2.402,2.043,3.938c0.004,0.099-0.014,0.22-0.168,0.38
				c-0.378,0.396-1.475,0.855-3.322,0.855c-3.476,0-8.01-1.631-10.311-5.271c-2.347-3.717-2.03-8.974,0.915-15.206
				c1.476-1.995,3.074-6.489-1.078-9.825c-1.952-1.568-3.152-3.26-2.919-4.114C4.668,5.564,5.7,5.087,7.338,4.849
				c0.436-0.063,0.898-0.096,1.376-0.096L8.715,3.754 M8.714,3.754c-0.528,0-1.039,0.036-1.52,0.106
				c-6.24,0.904-3.382,4.795-0.396,7.193c4.565,3.668,0.844,8.525,0.844,8.525C-0.1,35.844,11.133,41.574,17.898,41.574
				c2.605,0,4.551-0.853,4.488-2.279c-0.229-5.267-8.191-5.883-3.798-16.99C23.922,8.827,14.995,3.753,8.714,3.754L8.714,3.754z"/>
		</g>
	</g>
</g>
</svg>
