<?xml version="1.0" encoding="utf-8"?>
<!-- Generator: Adobe Illustrator 15.0.2, SVG Export Plug-In . SVG Version: 6.00 Build 0)  -->
<!DOCTYPE svg PUBLIC "-//W3C//DTD SVG 1.1//EN" "http://www.w3.org/Graphics/SVG/1.1/DTD/svg11.dtd">
<svg version="1.1" id="Layer_1" xmlns="http://www.w3.org/2000/svg" xmlns:xlink="http://www.w3.org/1999/xlink" x="0px" y="0px"
	 width="25px" height="46.131px" viewBox="0 0 25 46.131" enable-background="new 0 0 25 46.131" xml:space="preserve">
<g>
	<g>
		<path fill="#62BD63" d="M8.047,3.837v1c2.734,0,6.705,1.145,8.899,4.373c2.115,3.111,2.131,7.541,0.047,12.811
			c-3.051,7.71-0.425,10.901,1.685,13.464c1.061,1.289,1.977,2.402,2.043,3.938c0.004,0.098-0.013,0.219-0.167,0.38
			c-0.378,0.395-1.475,0.855-3.322,0.855c-3.476,0-8.011-1.63-10.311-5.271c-2.348-3.718-2.031-8.975,0.915-15.207
			c1.476-1.995,3.074-6.489-1.077-9.825c-1.952-1.568-3.153-3.26-2.919-4.114c0.162-0.595,1.194-1.072,2.832-1.31
			c0.435-0.063,0.898-0.095,1.375-0.095L8.047,3.837 M8.046,3.837c-0.528,0-1.038,0.036-1.518,0.105
			c-6.24,0.905-3.381,4.795-0.396,7.193c4.565,3.668,0.843,8.525,0.843,8.525c-7.742,16.267,3.492,21.997,10.256,21.997
			c2.606,0,4.551-0.852,4.488-2.279c-0.229-5.266-8.191-5.884-3.797-16.991C23.255,8.91,14.327,3.836,8.046,3.837L8.046,3.837z"/>
	</g>
</g>
</svg>
