<?xml version="1.0" encoding="utf-8"?>
<!-- Generator: Adobe Illustrator 15.0.2, SVG Export Plug-In . SVG Version: 6.00 Build 0)  -->
<!DOCTYPE svg PUBLIC "-//W3C//DTD SVG 1.1//EN" "http://www.w3.org/Graphics/SVG/1.1/DTD/svg11.dtd">
<svg version="1.1" id="Layer_1" xmlns="http://www.w3.org/2000/svg" xmlns:xlink="http://www.w3.org/1999/xlink" x="0px" y="0px"
	 width="25px" height="46.131px" viewBox="0 0 25 46.131" enable-background="new 0 0 25 46.131" xml:space="preserve">
<g>
	<g>
		<g>
			<defs>
				<polygon id="SVGID_1_" points="4.049,22.664 12.944,4.873 21.837,22.664 12.944,40.457 				"/>
			</defs>
			<clipPath id="SVGID_2_">
				<use xlink:href="#SVGID_1_"  overflow="visible"/>
			</clipPath>
			<g clip-path="url(#SVGID_2_)">
				<rect x="20.128" y="-5.657" fill="none" width="2.627" height="46.882"/>
				<g>
					<polygon fill="none" points="20.128,41.225 22.755,41.225 22.755,-5.657 20.128,-5.657 					"/>
					
						<line fill="none" stroke="#565CA9" stroke-width="1.0506" stroke-miterlimit="10" x1="20.653" y1="-5.657" x2="20.653" y2="41.225"/>
					<line fill="none" x1="22.755" y1="-5.657" x2="22.755" y2="41.225"/>
				</g>
			</g>
			<g clip-path="url(#SVGID_2_)">
				<rect x="17.501" y="-5.657" fill="none" width="2.627" height="46.882"/>
				<g>
					<polygon fill="none" points="17.501,41.225 20.128,41.225 20.128,-5.657 17.501,-5.657 					"/>
					
						<line fill="none" stroke="#565CA9" stroke-width="1.0506" stroke-miterlimit="10" x1="18.026" y1="-5.657" x2="18.026" y2="41.225"/>
					<line fill="none" x1="20.128" y1="-5.657" x2="20.128" y2="41.225"/>
				</g>
			</g>
			<g clip-path="url(#SVGID_2_)">
				<rect x="14.875" y="-5.657" fill="none" width="2.627" height="46.882"/>
				<g>
					<polygon fill="none" points="14.875,41.225 17.502,41.225 17.502,-5.657 14.875,-5.657 					"/>
					
						<line fill="none" stroke="#565CA9" stroke-width="1.0506" stroke-miterlimit="10" x1="15.4" y1="-5.657" x2="15.4" y2="41.225"/>
					<line fill="none" x1="17.502" y1="-5.657" x2="17.502" y2="41.225"/>
				</g>
			</g>
			<g clip-path="url(#SVGID_2_)">
				<rect x="12.248" y="-5.657" fill="none" width="2.627" height="46.882"/>
				<g>
					<polygon fill="none" points="12.248,41.225 14.875,41.225 14.875,-5.657 12.248,-5.657 					"/>
					
						<line fill="none" stroke="#565CA9" stroke-width="1.0506" stroke-miterlimit="10" x1="12.773" y1="-5.657" x2="12.773" y2="41.225"/>
					<line fill="none" x1="14.875" y1="-5.657" x2="14.875" y2="41.225"/>
				</g>
			</g>
			<g clip-path="url(#SVGID_2_)">
				<rect x="9.622" y="-5.657" fill="none" width="2.626" height="46.882"/>
				<g>
					<polygon fill="none" points="9.622,41.225 12.248,41.225 12.248,-5.657 9.622,-5.657 					"/>
					
						<line fill="none" stroke="#565CA9" stroke-width="1.0506" stroke-miterlimit="10" x1="10.147" y1="-5.657" x2="10.147" y2="41.225"/>
					<line fill="none" x1="12.248" y1="-5.657" x2="12.248" y2="41.225"/>
				</g>
			</g>
			<g clip-path="url(#SVGID_2_)">
				<rect x="6.995" y="-5.657" fill="none" width="2.626" height="46.882"/>
				<g>
					<polygon fill="none" points="6.995,41.225 9.622,41.225 9.622,-5.657 6.995,-5.657 					"/>
					
						<line fill="none" stroke="#565CA9" stroke-width="1.0506" stroke-miterlimit="10" x1="7.521" y1="-5.657" x2="7.521" y2="41.225"/>
					<line fill="none" x1="9.622" y1="-5.657" x2="9.622" y2="41.225"/>
				</g>
			</g>
			<g clip-path="url(#SVGID_2_)">
				<rect x="4.369" y="-5.657" fill="none" width="2.626" height="46.882"/>
				<g>
					<polygon fill="none" points="4.369,41.225 6.995,41.225 6.995,-5.657 4.369,-5.657 					"/>
					
						<line fill="none" stroke="#565CA9" stroke-width="1.0506" stroke-miterlimit="10" x1="4.894" y1="-5.657" x2="4.894" y2="41.225"/>
					<line fill="none" x1="6.995" y1="-5.657" x2="6.995" y2="41.225"/>
				</g>
			</g>
			<g clip-path="url(#SVGID_2_)">
				<rect x="1.742" y="-5.657" fill="none" width="2.626" height="46.882"/>
				<g>
					<polygon fill="none" points="1.742,41.225 4.369,41.225 4.369,-5.657 1.742,-5.657 					"/>
					
						<line fill="none" stroke="#565CA9" stroke-width="1.0506" stroke-miterlimit="10" x1="2.268" y1="-5.657" x2="2.268" y2="41.225"/>
					<line fill="none" x1="4.369" y1="-5.657" x2="4.369" y2="41.225"/>
				</g>
			</g>
		</g>
	</g>
	<g>
		<g>
			<path fill="#565DA9" d="M12.944,5.991l8.335,16.673l-8.335,16.675L4.608,22.664L12.944,5.991 M12.944,3.754L3.492,22.661H3.489
				l0.001,0.004l-0.001,0.002h0.003l9.452,18.908l9.451-18.908h0.004l-0.002-0.002l0.002-0.004h-0.004L12.944,3.754L12.944,3.754z"
				/>
		</g>
	</g>
</g>
</svg>
