<?xml version="1.0" encoding="utf-8"?>
<!-- Generator: Adobe Illustrator 15.0.2, SVG Export Plug-In . SVG Version: 6.00 Build 0)  -->
<!DOCTYPE svg PUBLIC "-//W3C//DTD SVG 1.1//EN" "http://www.w3.org/Graphics/SVG/1.1/DTD/svg11.dtd">
<svg version="1.1" id="Layer_1" xmlns="http://www.w3.org/2000/svg" xmlns:xlink="http://www.w3.org/1999/xlink" x="0px" y="0px"
	 width="25px" height="46.131px" viewBox="0 0 25 46.131" enable-background="new 0 0 25 46.131" xml:space="preserve">
<g>
	<g>
		<defs>
			<path id="SVGID_1_" d="M20.919,13.444c0-5.222-3.724-9.455-8.317-9.455c-4.594,0-8.317,4.232-8.317,9.455
				c0,0.019,0.002,0.036,0.002,0.054H4.285v19.12h0.012c0.123,5.1,3.79,9.193,8.306,9.193s8.182-4.095,8.305-9.193h0.012v-19.12
				h-0.002C20.917,13.479,20.919,13.463,20.919,13.444z"/>
		</defs>
		<clipPath id="SVGID_2_">
			<use xlink:href="#SVGID_1_"  overflow="visible"/>
		</clipPath>
		<g clip-path="url(#SVGID_2_)">
			<rect x="19.114" y="9.046" fill="none" width="2.627" height="46.882"/>
			<g>
				<polygon fill="none" points="19.114,55.929 21.741,55.929 21.741,9.046 19.114,9.046 				"/>
				
					<line fill="none" stroke="#565CA9" stroke-width="1.0506" stroke-miterlimit="10" x1="19.64" y1="9.046" x2="19.64" y2="55.929"/>
				<line fill="none" x1="21.741" y1="9.046" x2="21.741" y2="55.929"/>
			</g>
		</g>
		<g clip-path="url(#SVGID_2_)">
			<rect x="19.114" y="-37.835" fill="none" width="2.627" height="46.882"/>
			<g>
				<polygon fill="none" points="19.114,9.046 21.741,9.046 21.741,-37.835 19.114,-37.835 				"/>
				
					<line fill="none" stroke="#565CA9" stroke-width="1.0506" stroke-miterlimit="10" x1="19.64" y1="-37.835" x2="19.64" y2="9.046"/>
				<line fill="none" x1="21.741" y1="-37.835" x2="21.741" y2="9.046"/>
			</g>
		</g>
		<g clip-path="url(#SVGID_2_)">
			<rect x="16.488" y="9.046" fill="none" width="2.627" height="46.882"/>
			<g>
				<polygon fill="none" points="16.488,55.929 19.115,55.929 19.115,9.046 16.488,9.046 				"/>
				
					<line fill="none" stroke="#565CA9" stroke-width="1.0506" stroke-miterlimit="10" x1="17.014" y1="9.046" x2="17.014" y2="55.929"/>
				<line fill="none" x1="19.115" y1="9.046" x2="19.115" y2="55.929"/>
			</g>
		</g>
		<g clip-path="url(#SVGID_2_)">
			<rect x="16.488" y="-37.835" fill="none" width="2.627" height="46.882"/>
			<g>
				<polygon fill="none" points="16.488,9.046 19.115,9.046 19.115,-37.835 16.488,-37.835 				"/>
				
					<line fill="none" stroke="#565CA9" stroke-width="1.0506" stroke-miterlimit="10" x1="17.014" y1="-37.835" x2="17.014" y2="9.046"/>
				<line fill="none" x1="19.115" y1="-37.835" x2="19.115" y2="9.046"/>
			</g>
		</g>
		<g clip-path="url(#SVGID_2_)">
			<rect x="13.861" y="9.046" fill="none" width="2.627" height="46.882"/>
			<g>
				<polygon fill="none" points="13.861,55.929 16.488,55.929 16.488,9.046 13.861,9.046 				"/>
				
					<line fill="none" stroke="#565CA9" stroke-width="1.0506" stroke-miterlimit="10" x1="14.387" y1="9.046" x2="14.387" y2="55.929"/>
				<line fill="none" x1="16.488" y1="9.046" x2="16.488" y2="55.929"/>
			</g>
		</g>
		<g clip-path="url(#SVGID_2_)">
			<rect x="13.861" y="-37.835" fill="none" width="2.627" height="46.882"/>
			<g>
				<polygon fill="none" points="13.861,9.046 16.488,9.046 16.488,-37.835 13.861,-37.835 				"/>
				
					<line fill="none" stroke="#565CA9" stroke-width="1.0506" stroke-miterlimit="10" x1="14.387" y1="-37.835" x2="14.387" y2="9.046"/>
				<line fill="none" x1="16.488" y1="-37.835" x2="16.488" y2="9.046"/>
			</g>
		</g>
		<g clip-path="url(#SVGID_2_)">
			<rect x="11.235" y="9.046" fill="none" width="2.626" height="46.882"/>
			<g>
				<polygon fill="none" points="11.235,55.929 13.861,55.929 13.861,9.046 11.235,9.046 				"/>
				
					<line fill="none" stroke="#565CA9" stroke-width="1.0506" stroke-miterlimit="10" x1="11.76" y1="9.046" x2="11.76" y2="55.929"/>
				<line fill="none" x1="13.861" y1="9.046" x2="13.861" y2="55.929"/>
			</g>
		</g>
		<g clip-path="url(#SVGID_2_)">
			<rect x="11.235" y="-37.835" fill="none" width="2.626" height="46.882"/>
			<g>
				<polygon fill="none" points="11.235,9.046 13.861,9.046 13.861,-37.835 11.235,-37.835 				"/>
				
					<line fill="none" stroke="#565CA9" stroke-width="1.0506" stroke-miterlimit="10" x1="11.76" y1="-37.835" x2="11.76" y2="9.046"/>
				<line fill="none" x1="13.861" y1="-37.835" x2="13.861" y2="9.046"/>
			</g>
		</g>
		<g clip-path="url(#SVGID_2_)">
			<rect x="8.608" y="9.046" fill="none" width="2.626" height="46.882"/>
			<g>
				<polygon fill="none" points="8.608,55.929 11.235,55.929 11.235,9.046 8.608,9.046 				"/>
				
					<line fill="none" stroke="#565CA9" stroke-width="1.0506" stroke-miterlimit="10" x1="9.134" y1="9.046" x2="9.134" y2="55.929"/>
				<line fill="none" x1="11.235" y1="9.046" x2="11.235" y2="55.929"/>
			</g>
		</g>
		<g clip-path="url(#SVGID_2_)">
			<rect x="8.608" y="-37.835" fill="none" width="2.626" height="46.882"/>
			<g>
				<polygon fill="none" points="8.608,9.046 11.235,9.046 11.235,-37.835 8.608,-37.835 				"/>
				
					<line fill="none" stroke="#565CA9" stroke-width="1.0506" stroke-miterlimit="10" x1="9.134" y1="-37.835" x2="9.134" y2="9.046"/>
				<line fill="none" x1="11.235" y1="-37.835" x2="11.235" y2="9.046"/>
			</g>
		</g>
		<g clip-path="url(#SVGID_2_)">
			<rect x="5.982" y="9.046" fill="none" width="2.626" height="46.882"/>
			<g>
				<polygon fill="none" points="5.982,55.929 8.608,55.929 8.608,9.046 5.982,9.046 				"/>
				
					<line fill="none" stroke="#565CA9" stroke-width="1.0506" stroke-miterlimit="10" x1="6.507" y1="9.046" x2="6.507" y2="55.929"/>
				<line fill="none" x1="8.608" y1="9.046" x2="8.608" y2="55.929"/>
			</g>
		</g>
		<g clip-path="url(#SVGID_2_)">
			<rect x="5.982" y="-37.835" fill="none" width="2.626" height="46.882"/>
			<g>
				<polygon fill="none" points="5.982,9.046 8.608,9.046 8.608,-37.835 5.982,-37.835 				"/>
				
					<line fill="none" stroke="#565CA9" stroke-width="1.0506" stroke-miterlimit="10" x1="6.507" y1="-37.835" x2="6.507" y2="9.046"/>
				<line fill="none" x1="8.608" y1="-37.835" x2="8.608" y2="9.046"/>
			</g>
		</g>
		<g clip-path="url(#SVGID_2_)">
			<rect x="3.355" y="9.046" fill="none" width="2.626" height="46.882"/>
			<g>
				<polygon fill="none" points="3.355,55.929 5.982,55.929 5.982,9.046 3.355,9.046 				"/>
				
					<line fill="none" stroke="#565CA9" stroke-width="1.0506" stroke-miterlimit="10" x1="3.881" y1="9.046" x2="3.881" y2="55.929"/>
				<line fill="none" x1="5.982" y1="9.046" x2="5.982" y2="55.929"/>
			</g>
		</g>
		<g clip-path="url(#SVGID_2_)">
			<rect x="3.355" y="-37.835" fill="none" width="2.626" height="46.882"/>
			<g>
				<polygon fill="none" points="3.355,9.046 5.982,9.046 5.982,-37.835 3.355,-37.835 				"/>
				
					<line fill="none" stroke="#565CA9" stroke-width="1.0506" stroke-miterlimit="10" x1="3.881" y1="-37.835" x2="3.881" y2="9.046"/>
				<line fill="none" x1="5.982" y1="-37.835" x2="5.982" y2="9.046"/>
			</g>
		</g>
	</g>
	<path fill="#565DA9" d="M12.603,42.312c-4.662,0-8.441-4-8.784-9.193H3.797l-0.012-0.5v-19.12c0-5.543,3.955-10.009,8.817-10.009
		s8.817,4.466,8.817,9.955l0.001,19.674h-0.034C21.043,38.312,17.265,42.312,12.603,42.312z M4.785,32.366l0.012,0.24
		c0.118,4.881,3.546,8.705,7.806,8.705c4.259,0,7.688-3.824,7.805-8.705l0.012-0.48V13.498c-0.001-4.992-3.508-9.009-7.818-9.009
		s-7.817,4.017-7.817,8.955V32.366z"/>
</g>
</svg>
