<?xml version="1.0" encoding="utf-8"?>
<!-- Generator: Adobe Illustrator 15.0.2, SVG Export Plug-In . SVG Version: 6.00 Build 0)  -->
<!DOCTYPE svg PUBLIC "-//W3C//DTD SVG 1.1//EN" "http://www.w3.org/Graphics/SVG/1.1/DTD/svg11.dtd">
<svg version="1.1" id="Layer_1" xmlns="http://www.w3.org/2000/svg" xmlns:xlink="http://www.w3.org/1999/xlink" x="0px" y="0px"
	 width="25px" height="46.131px" viewBox="0 0 25 46.131" enable-background="new 0 0 25 46.131" xml:space="preserve">
<g>
	<g>
		<g>
			<defs>
				<path id="SVGID_1_" d="M17.898,41.099c-3.612,0-8.333-1.703-10.732-5.505c-2.45-3.879-2.136-9.319,0.908-15.736
					c0.384-0.537,3.678-5.444-0.961-9.172C4.91,8.917,3.726,7.141,4.023,6.05c0.282-1.035,1.919-1.481,3.242-1.673
					c0.459-0.066,0.946-0.1,1.446-0.1c2.994,0,7.014,1.206,9.314,4.592c2.213,3.254,2.246,7.844,0.1,13.274
					c-2.943,7.438-0.525,10.375,1.605,12.963c1.117,1.358,2.082,2.531,2.156,4.233c0.012,0.276-0.089,0.521-0.306,0.749
					C20.977,40.722,19.6,41.099,17.898,41.099z"/>
			</defs>
			<clipPath id="SVGID_2_">
				<use xlink:href="#SVGID_1_"  overflow="visible"/>
			</clipPath>
			<g clip-path="url(#SVGID_2_)">
				<rect x="19.999" y="40.096" fill="none" width="2.627" height="46.882"/>
				<g>
					<polygon fill="none" points="19.999,86.978 22.626,86.978 22.626,40.096 19.999,40.096 					"/>
					
						<line fill="none" stroke="#565CA9" stroke-width="1.0506" stroke-miterlimit="10" x1="20.524" y1="40.096" x2="20.524" y2="86.978"/>
					<line fill="none" x1="22.626" y1="40.096" x2="22.626" y2="86.978"/>
				</g>
			</g>
			<g clip-path="url(#SVGID_2_)">
				<rect x="19.999" y="-6.786" fill="none" width="2.627" height="46.882"/>
				<g>
					<polygon fill="none" points="19.999,40.096 22.626,40.096 22.626,-6.786 19.999,-6.786 					"/>
					
						<line fill="none" stroke="#565CA9" stroke-width="1.0506" stroke-miterlimit="10" x1="20.524" y1="-6.786" x2="20.524" y2="40.096"/>
					<line fill="none" x1="22.626" y1="-6.786" x2="22.626" y2="40.096"/>
				</g>
			</g>
			<g clip-path="url(#SVGID_2_)">
				<rect x="17.372" y="40.096" fill="none" width="2.627" height="46.882"/>
				<g>
					<polygon fill="none" points="17.372,86.978 19.999,86.978 19.999,40.096 17.372,40.096 					"/>
					
						<line fill="none" stroke="#565CA9" stroke-width="1.0506" stroke-miterlimit="10" x1="17.897" y1="40.096" x2="17.897" y2="86.978"/>
					<line fill="none" x1="19.999" y1="40.096" x2="19.999" y2="86.978"/>
				</g>
			</g>
			<g clip-path="url(#SVGID_2_)">
				<rect x="17.372" y="-6.786" fill="none" width="2.627" height="46.882"/>
				<g>
					<polygon fill="none" points="17.372,40.096 19.999,40.096 19.999,-6.786 17.372,-6.786 					"/>
					
						<line fill="none" stroke="#565CA9" stroke-width="1.0506" stroke-miterlimit="10" x1="17.897" y1="-6.786" x2="17.897" y2="40.096"/>
					<line fill="none" x1="19.999" y1="-6.786" x2="19.999" y2="40.096"/>
				</g>
			</g>
			<g clip-path="url(#SVGID_2_)">
				<rect x="14.746" y="40.096" fill="none" width="2.627" height="46.882"/>
				<g>
					<polygon fill="none" points="14.746,86.978 17.373,86.978 17.373,40.096 14.746,40.096 					"/>
					
						<line fill="none" stroke="#565CA9" stroke-width="1.0506" stroke-miterlimit="10" x1="15.271" y1="40.096" x2="15.271" y2="86.978"/>
					<line fill="none" x1="17.373" y1="40.096" x2="17.373" y2="86.978"/>
				</g>
			</g>
			<g clip-path="url(#SVGID_2_)">
				<rect x="14.746" y="-6.786" fill="none" width="2.627" height="46.882"/>
				<g>
					<polygon fill="none" points="14.746,40.096 17.373,40.096 17.373,-6.786 14.746,-6.786 					"/>
					
						<line fill="none" stroke="#565CA9" stroke-width="1.0506" stroke-miterlimit="10" x1="15.271" y1="-6.786" x2="15.271" y2="40.096"/>
					<line fill="none" x1="17.373" y1="-6.786" x2="17.373" y2="40.096"/>
				</g>
			</g>
			<g clip-path="url(#SVGID_2_)">
				<rect x="12.119" y="40.096" fill="none" width="2.627" height="46.882"/>
				<g>
					<polygon fill="none" points="12.119,86.978 14.746,86.978 14.746,40.096 12.119,40.096 					"/>
					
						<line fill="none" stroke="#565CA9" stroke-width="1.0506" stroke-miterlimit="10" x1="12.645" y1="40.096" x2="12.645" y2="86.978"/>
					<line fill="none" x1="14.746" y1="40.096" x2="14.746" y2="86.978"/>
				</g>
			</g>
			<g clip-path="url(#SVGID_2_)">
				<rect x="12.119" y="-6.786" fill="none" width="2.627" height="46.882"/>
				<g>
					<polygon fill="none" points="12.119,40.096 14.746,40.096 14.746,-6.786 12.119,-6.786 					"/>
					
						<line fill="none" stroke="#565CA9" stroke-width="1.0506" stroke-miterlimit="10" x1="12.645" y1="-6.786" x2="12.645" y2="40.096"/>
					<line fill="none" x1="14.746" y1="-6.786" x2="14.746" y2="40.096"/>
				</g>
			</g>
			<g clip-path="url(#SVGID_2_)">
				<rect x="9.493" y="40.096" fill="none" width="2.626" height="46.882"/>
				<g>
					<polygon fill="none" points="9.493,86.978 12.119,86.978 12.119,40.096 9.493,40.096 					"/>
					
						<line fill="none" stroke="#565CA9" stroke-width="1.0506" stroke-miterlimit="10" x1="10.018" y1="40.096" x2="10.018" y2="86.978"/>
					<line fill="none" x1="12.119" y1="40.096" x2="12.119" y2="86.978"/>
				</g>
			</g>
			<g clip-path="url(#SVGID_2_)">
				<rect x="9.493" y="-6.786" fill="none" width="2.626" height="46.882"/>
				<g>
					<polygon fill="none" points="9.493,40.096 12.119,40.096 12.119,-6.786 9.493,-6.786 					"/>
					
						<line fill="none" stroke="#565CA9" stroke-width="1.0506" stroke-miterlimit="10" x1="10.018" y1="-6.786" x2="10.018" y2="40.096"/>
					<line fill="none" x1="12.119" y1="-6.786" x2="12.119" y2="40.096"/>
				</g>
			</g>
			<g clip-path="url(#SVGID_2_)">
				<rect x="6.866" y="40.096" fill="none" width="2.626" height="46.882"/>
				<g>
					<polygon fill="none" points="6.866,86.978 9.493,86.978 9.493,40.096 6.866,40.096 					"/>
					
						<line fill="none" stroke="#565CA9" stroke-width="1.0506" stroke-miterlimit="10" x1="7.392" y1="40.096" x2="7.392" y2="86.978"/>
					<line fill="none" x1="9.493" y1="40.096" x2="9.493" y2="86.978"/>
				</g>
			</g>
			<g clip-path="url(#SVGID_2_)">
				<rect x="6.866" y="-6.786" fill="none" width="2.626" height="46.882"/>
				<g>
					<polygon fill="none" points="6.866,40.096 9.493,40.096 9.493,-6.786 6.866,-6.786 					"/>
					
						<line fill="none" stroke="#565CA9" stroke-width="1.0506" stroke-miterlimit="10" x1="7.392" y1="-6.786" x2="7.392" y2="40.096"/>
					<line fill="none" x1="9.493" y1="-6.786" x2="9.493" y2="40.096"/>
				</g>
			</g>
			<g clip-path="url(#SVGID_2_)">
				<rect x="4.24" y="40.096" fill="none" width="2.626" height="46.882"/>
				<g>
					<polygon fill="none" points="4.24,86.978 6.866,86.978 6.866,40.096 4.24,40.096 					"/>
					
						<line fill="none" stroke="#565CA9" stroke-width="1.0506" stroke-miterlimit="10" x1="4.765" y1="40.096" x2="4.765" y2="86.978"/>
					<line fill="none" x1="6.866" y1="40.096" x2="6.866" y2="86.978"/>
				</g>
			</g>
			<g clip-path="url(#SVGID_2_)">
				<rect x="4.24" y="-6.786" fill="none" width="2.626" height="46.882"/>
				<g>
					<polygon fill="none" points="4.24,40.096 6.866,40.096 6.866,-6.786 4.24,-6.786 					"/>
					
						<line fill="none" stroke="#565CA9" stroke-width="1.0506" stroke-miterlimit="10" x1="4.765" y1="-6.786" x2="4.765" y2="40.096"/>
					<line fill="none" x1="6.866" y1="-6.786" x2="6.866" y2="40.096"/>
				</g>
			</g>
			<g clip-path="url(#SVGID_2_)">
				<rect x="1.613" y="40.096" fill="none" width="2.626" height="46.882"/>
				<g>
					<polygon fill="none" points="1.613,86.978 4.24,86.978 4.24,40.096 1.613,40.096 					"/>
					
						<line fill="none" stroke="#565CA9" stroke-width="1.0506" stroke-miterlimit="10" x1="2.139" y1="40.096" x2="2.139" y2="86.978"/>
					<line fill="none" x1="4.24" y1="40.096" x2="4.24" y2="86.978"/>
				</g>
			</g>
			<g clip-path="url(#SVGID_2_)">
				<rect x="1.613" y="-6.786" fill="none" width="2.626" height="46.882"/>
				<g>
					<polygon fill="none" points="1.613,40.096 4.24,40.096 4.24,-6.786 1.613,-6.786 					"/>
					
						<line fill="none" stroke="#565CA9" stroke-width="1.0506" stroke-miterlimit="10" x1="2.139" y1="-6.786" x2="2.139" y2="40.096"/>
					<line fill="none" x1="4.24" y1="-6.786" x2="4.24" y2="40.096"/>
				</g>
			</g>
		</g>
	</g>
	<g>
		<path fill="#565DA9" d="M8.712,4.777L8.712,4.777c2.734,0,6.706,1.145,8.899,4.373c2.115,3.111,2.133,7.54,0.049,12.809
			c-3.053,7.712-0.426,10.901,1.686,13.467c1.061,1.288,1.977,2.401,2.043,3.937c0.004,0.099-0.014,0.221-0.168,0.382
			c-0.378,0.396-1.475,0.854-3.322,0.854c-3.476,0-8.01-1.63-10.311-5.271c-2.347-3.718-2.031-8.974,0.914-15.206
			c1.477-1.995,3.075-6.49-1.077-9.826c-1.952-1.568-3.152-3.26-2.919-4.114C4.668,5.587,5.7,5.109,7.337,4.872
			C7.772,4.809,8.235,4.777,8.712,4.777 M8.711,3.777c-0.527,0-1.037,0.036-1.518,0.105c-6.239,0.905-3.381,4.795-0.395,7.193
			c4.565,3.669,0.843,8.526,0.843,8.526C-0.1,35.868,11.133,41.599,17.898,41.599c2.605,0,4.551-0.853,4.488-2.279
			c-0.229-5.266-8.191-5.885-3.797-16.992C23.921,8.849,14.993,3.776,8.711,3.777L8.711,3.777z"/>
	</g>
</g>
</svg>
