<?xml version="1.0" encoding="utf-8"?>
<!-- Generator: Adobe Illustrator 15.0.2, SVG Export Plug-In . SVG Version: 6.00 Build 0)  -->
<!DOCTYPE svg PUBLIC "-//W3C//DTD SVG 1.1//EN" "http://www.w3.org/Graphics/SVG/1.1/DTD/svg11.dtd">
<svg version="1.1" id="Layer_1" xmlns="http://www.w3.org/2000/svg" xmlns:xlink="http://www.w3.org/1999/xlink" x="0px" y="0px"
	 width="25px" height="46.131px" viewBox="0 0 25 46.131" enable-background="new 0 0 25 46.131" xml:space="preserve">
<g>
	<path fill="#565DA9" d="M8.45,4.86L8.45,4.86c2.734,0,6.706,1.145,8.9,4.373c2.115,3.111,2.132,7.541,0.048,12.809
		c-3.052,7.712-0.426,10.903,1.685,13.466c1.061,1.289,1.977,2.401,2.043,3.937c0.004,0.099-0.013,0.22-0.167,0.382
		c-0.378,0.395-1.475,0.855-3.323,0.855c-3.476,0-8.01-1.63-10.31-5.271c-2.348-3.718-2.031-8.975,0.914-15.207
		c1.477-1.995,3.075-6.49-1.077-9.826C5.21,8.812,4.01,7.12,4.244,6.265c0.162-0.595,1.194-1.072,2.832-1.31
		C7.51,4.892,7.973,4.86,8.45,4.86 M8.449,3.86c-0.528,0-1.037,0.036-1.518,0.105c-6.24,0.905-3.381,4.795-0.396,7.193
		c4.566,3.669,0.843,8.526,0.843,8.526c-7.741,16.266,3.49,21.997,10.256,21.997c2.606,0,4.551-0.853,4.489-2.28
		c-0.229-5.265-8.192-5.884-3.797-16.992C23.659,8.932,14.73,3.86,8.449,3.86L8.449,3.86z"/>
</g>
</svg>
