<?xml version="1.0" encoding="utf-8"?>
<!-- Generator: Adobe Illustrator 15.0.2, SVG Export Plug-In . SVG Version: 6.00 Build 0)  -->
<!DOCTYPE svg PUBLIC "-//W3C//DTD SVG 1.1//EN" "http://www.w3.org/Graphics/SVG/1.1/DTD/svg11.dtd">
<svg version="1.1" id="Layer_1" xmlns="http://www.w3.org/2000/svg" xmlns:xlink="http://www.w3.org/1999/xlink" x="0px" y="0px"
	 width="25px" height="46.131px" viewBox="0 0 25 46.131" enable-background="new 0 0 25 46.131" xml:space="preserve">
<g>
	<g>
		<defs>
			<path id="SVGID_1_" d="M20.919,14.209c0-5.223-3.724-9.455-8.317-9.455c-4.594,0-8.317,4.232-8.317,9.455
				c0,0.02,0.002,0.035,0.002,0.055H4.285v19.119h0.012c0.123,5.099,3.79,9.193,8.306,9.193s8.182-4.097,8.305-9.193h0.012V14.264
				h-0.002C20.917,14.245,20.919,14.229,20.919,14.209z"/>
		</defs>
		<clipPath id="SVGID_2_">
			<use xlink:href="#SVGID_1_"  overflow="visible"/>
		</clipPath>
		<g clip-path="url(#SVGID_2_)">
			<rect x="19.114" y="8.283" fill="none" width="2.627" height="46.882"/>
			<g>
				<polygon fill="none" points="19.114,55.165 21.741,55.165 21.741,8.283 19.114,8.283 				"/>
				
					<line fill="none" stroke="#ED1F24" stroke-width="1.0506" stroke-miterlimit="10" x1="19.64" y1="8.283" x2="19.64" y2="55.165"/>
				<line fill="none" x1="21.741" y1="8.283" x2="21.741" y2="55.165"/>
			</g>
		</g>
		<g clip-path="url(#SVGID_2_)">
			<rect x="19.114" y="-38.599" fill="none" width="2.627" height="46.882"/>
			<g>
				<polygon fill="none" points="19.114,8.283 21.741,8.283 21.741,-38.599 19.114,-38.599 				"/>
				
					<line fill="none" stroke="#ED1F24" stroke-width="1.0506" stroke-miterlimit="10" x1="19.64" y1="-38.599" x2="19.64" y2="8.283"/>
				<line fill="none" x1="21.741" y1="-38.599" x2="21.741" y2="8.283"/>
			</g>
		</g>
		<g clip-path="url(#SVGID_2_)">
			<rect x="16.488" y="8.283" fill="none" width="2.627" height="46.882"/>
			<g>
				<polygon fill="none" points="16.488,55.165 19.115,55.165 19.115,8.283 16.488,8.283 				"/>
				
					<line fill="none" stroke="#ED1F24" stroke-width="1.0506" stroke-miterlimit="10" x1="17.014" y1="8.283" x2="17.014" y2="55.165"/>
				<line fill="none" x1="19.115" y1="8.283" x2="19.115" y2="55.165"/>
			</g>
		</g>
		<g clip-path="url(#SVGID_2_)">
			<rect x="16.488" y="-38.599" fill="none" width="2.627" height="46.882"/>
			<g>
				<polygon fill="none" points="16.488,8.283 19.115,8.283 19.115,-38.599 16.488,-38.599 				"/>
				
					<line fill="none" stroke="#ED1F24" stroke-width="1.0506" stroke-miterlimit="10" x1="17.014" y1="-38.599" x2="17.014" y2="8.283"/>
				<line fill="none" x1="19.115" y1="-38.599" x2="19.115" y2="8.283"/>
			</g>
		</g>
		<g clip-path="url(#SVGID_2_)">
			<rect x="13.861" y="8.283" fill="none" width="2.627" height="46.882"/>
			<g>
				<polygon fill="none" points="13.861,55.165 16.488,55.165 16.488,8.283 13.861,8.283 				"/>
				
					<line fill="none" stroke="#ED1F24" stroke-width="1.0506" stroke-miterlimit="10" x1="14.387" y1="8.283" x2="14.387" y2="55.165"/>
				<line fill="none" x1="16.488" y1="8.283" x2="16.488" y2="55.165"/>
			</g>
		</g>
		<g clip-path="url(#SVGID_2_)">
			<rect x="13.861" y="-38.599" fill="none" width="2.627" height="46.882"/>
			<g>
				<polygon fill="none" points="13.861,8.283 16.488,8.283 16.488,-38.599 13.861,-38.599 				"/>
				
					<line fill="none" stroke="#ED1F24" stroke-width="1.0506" stroke-miterlimit="10" x1="14.387" y1="-38.599" x2="14.387" y2="8.283"/>
				<line fill="none" x1="16.488" y1="-38.599" x2="16.488" y2="8.283"/>
			</g>
		</g>
		<g clip-path="url(#SVGID_2_)">
			<rect x="11.235" y="8.283" fill="none" width="2.626" height="46.882"/>
			<g>
				<polygon fill="none" points="11.235,55.165 13.861,55.165 13.861,8.283 11.235,8.283 				"/>
				
					<line fill="none" stroke="#ED1F24" stroke-width="1.0506" stroke-miterlimit="10" x1="11.76" y1="8.283" x2="11.76" y2="55.165"/>
				<line fill="none" x1="13.861" y1="8.283" x2="13.861" y2="55.165"/>
			</g>
		</g>
		<g clip-path="url(#SVGID_2_)">
			<rect x="11.235" y="-38.599" fill="none" width="2.626" height="46.882"/>
			<g>
				<polygon fill="none" points="11.235,8.283 13.861,8.283 13.861,-38.599 11.235,-38.599 				"/>
				
					<line fill="none" stroke="#ED1F24" stroke-width="1.0506" stroke-miterlimit="10" x1="11.76" y1="-38.599" x2="11.76" y2="8.283"/>
				<line fill="none" x1="13.861" y1="-38.599" x2="13.861" y2="8.283"/>
			</g>
		</g>
		<g clip-path="url(#SVGID_2_)">
			<rect x="8.608" y="8.283" fill="none" width="2.626" height="46.882"/>
			<g>
				<polygon fill="none" points="8.608,55.165 11.235,55.165 11.235,8.283 8.608,8.283 				"/>
				
					<line fill="none" stroke="#ED1F24" stroke-width="1.0506" stroke-miterlimit="10" x1="9.134" y1="8.283" x2="9.134" y2="55.165"/>
				<line fill="none" x1="11.235" y1="8.283" x2="11.235" y2="55.165"/>
			</g>
		</g>
		<g clip-path="url(#SVGID_2_)">
			<rect x="8.608" y="-38.599" fill="none" width="2.626" height="46.882"/>
			<g>
				<polygon fill="none" points="8.608,8.283 11.235,8.283 11.235,-38.599 8.608,-38.599 				"/>
				
					<line fill="none" stroke="#ED1F24" stroke-width="1.0506" stroke-miterlimit="10" x1="9.134" y1="-38.599" x2="9.134" y2="8.283"/>
				<line fill="none" x1="11.235" y1="-38.599" x2="11.235" y2="8.283"/>
			</g>
		</g>
		<g clip-path="url(#SVGID_2_)">
			<rect x="5.982" y="8.283" fill="none" width="2.626" height="46.882"/>
			<g>
				<polygon fill="none" points="5.982,55.165 8.608,55.165 8.608,8.283 5.982,8.283 				"/>
				
					<line fill="none" stroke="#ED1F24" stroke-width="1.0506" stroke-miterlimit="10" x1="6.507" y1="8.283" x2="6.507" y2="55.165"/>
				<line fill="none" x1="8.608" y1="8.283" x2="8.608" y2="55.165"/>
			</g>
		</g>
		<g clip-path="url(#SVGID_2_)">
			<rect x="5.982" y="-38.599" fill="none" width="2.626" height="46.882"/>
			<g>
				<polygon fill="none" points="5.982,8.283 8.608,8.283 8.608,-38.599 5.982,-38.599 				"/>
				
					<line fill="none" stroke="#ED1F24" stroke-width="1.0506" stroke-miterlimit="10" x1="6.507" y1="-38.599" x2="6.507" y2="8.283"/>
				<line fill="none" x1="8.608" y1="-38.599" x2="8.608" y2="8.283"/>
			</g>
		</g>
		<g clip-path="url(#SVGID_2_)">
			<rect x="3.355" y="8.283" fill="none" width="2.626" height="46.882"/>
			<g>
				<polygon fill="none" points="3.355,55.165 5.982,55.165 5.982,8.283 3.355,8.283 				"/>
				
					<line fill="none" stroke="#ED1F24" stroke-width="1.0506" stroke-miterlimit="10" x1="3.881" y1="8.283" x2="3.881" y2="55.165"/>
				<line fill="none" x1="5.982" y1="8.283" x2="5.982" y2="55.165"/>
			</g>
		</g>
		<g clip-path="url(#SVGID_2_)">
			<rect x="3.355" y="-38.599" fill="none" width="2.626" height="46.882"/>
			<g>
				<polygon fill="none" points="3.355,8.283 5.982,8.283 5.982,-38.599 3.355,-38.599 				"/>
				
					<line fill="none" stroke="#ED1F24" stroke-width="1.0506" stroke-miterlimit="10" x1="3.881" y1="-38.599" x2="3.881" y2="8.283"/>
				<line fill="none" x1="5.982" y1="-38.599" x2="5.982" y2="8.283"/>
			</g>
		</g>
	</g>
	<path fill="#ED1F24" d="M12.603,43.076c-4.662,0-8.441-4-8.784-9.193H3.797l-0.012-0.5V14.264c0-5.544,3.955-10.01,8.817-10.01
		s8.817,4.466,8.817,9.955l0.001,19.674h-0.034C21.043,39.076,17.265,43.076,12.603,43.076z M4.785,33.131l0.012,0.24
		c0.118,4.881,3.546,8.705,7.806,8.705c4.259,0,7.687-3.824,7.805-8.705l0.012-0.48V14.264c-0.001-4.993-3.508-9.01-7.818-9.01
		s-7.817,4.017-7.817,8.955V33.131z"/>
</g>
</svg>
