<?xml version="1.0" encoding="utf-8"?>
<!-- Generator: Adobe Illustrator 15.0.2, SVG Export Plug-In . SVG Version: 6.00 Build 0)  -->
<!DOCTYPE svg PUBLIC "-//W3C//DTD SVG 1.1//EN" "http://www.w3.org/Graphics/SVG/1.1/DTD/svg11.dtd">
<svg version="1.1" id="Layer_1" xmlns="http://www.w3.org/2000/svg" xmlns:xlink="http://www.w3.org/1999/xlink" x="0px" y="0px"
	 width="25px" height="46.131px" viewBox="0 0 25 46.131" enable-background="new 0 0 25 46.131" xml:space="preserve">
<g>
	<g>
		<g>
			<defs>
				<path id="SVGID_1_" d="M17.922,41.204c-3.611,0-8.332-1.702-10.733-5.504c-2.45-3.879-2.136-9.32,0.909-15.737
					c0.384-0.537,3.677-5.443-0.962-9.171C4.933,9.022,3.75,7.246,4.047,6.156C4.33,5.121,5.966,4.675,7.29,4.482
					c0.459-0.066,0.945-0.1,1.446-0.1c2.994,0,7.014,1.206,9.314,4.592c2.214,3.254,2.247,7.845,0.099,13.275
					c-2.941,7.436-0.525,10.373,1.605,12.963c1.118,1.357,2.083,2.53,2.156,4.232c0.013,0.277-0.087,0.521-0.305,0.75
					C21,40.827,19.624,41.204,17.922,41.204z"/>
			</defs>
			<clipPath id="SVGID_2_">
				<use xlink:href="#SVGID_1_"  overflow="visible"/>
			</clipPath>
			<g clip-path="url(#SVGID_2_)">
				<rect x="20.022" y="39.99" fill="none" width="2.627" height="46.882"/>
				<g>
					<polygon fill="none" points="20.022,86.872 22.649,86.872 22.649,39.99 20.022,39.99 					"/>
					
						<line fill="none" stroke="#ED1F24" stroke-width="1.0506" stroke-miterlimit="10" x1="20.548" y1="39.99" x2="20.548" y2="86.872"/>
					<line fill="none" x1="22.649" y1="39.99" x2="22.649" y2="86.872"/>
				</g>
			</g>
			<g clip-path="url(#SVGID_2_)">
				<rect x="20.022" y="-6.892" fill="none" width="2.627" height="46.882"/>
				<g>
					<polygon fill="none" points="20.022,39.99 22.649,39.99 22.649,-6.892 20.022,-6.892 					"/>
					
						<line fill="none" stroke="#ED1F24" stroke-width="1.0506" stroke-miterlimit="10" x1="20.548" y1="-6.892" x2="20.548" y2="39.99"/>
					<line fill="none" x1="22.649" y1="-6.892" x2="22.649" y2="39.99"/>
				</g>
			</g>
			<g clip-path="url(#SVGID_2_)">
				<rect x="17.396" y="39.99" fill="none" width="2.627" height="46.882"/>
				<g>
					<polygon fill="none" points="17.396,86.872 20.022,86.872 20.022,39.99 17.396,39.99 					"/>
					
						<line fill="none" stroke="#ED1F24" stroke-width="1.0506" stroke-miterlimit="10" x1="17.921" y1="39.99" x2="17.921" y2="86.872"/>
					<line fill="none" x1="20.022" y1="39.99" x2="20.022" y2="86.872"/>
				</g>
			</g>
			<g clip-path="url(#SVGID_2_)">
				<rect x="17.396" y="-6.892" fill="none" width="2.627" height="46.882"/>
				<g>
					<polygon fill="none" points="17.396,39.99 20.022,39.99 20.022,-6.892 17.396,-6.892 					"/>
					
						<line fill="none" stroke="#ED1F24" stroke-width="1.0506" stroke-miterlimit="10" x1="17.921" y1="-6.892" x2="17.921" y2="39.99"/>
					<line fill="none" x1="20.022" y1="-6.892" x2="20.022" y2="39.99"/>
				</g>
			</g>
			<g clip-path="url(#SVGID_2_)">
				<rect x="14.77" y="39.99" fill="none" width="2.627" height="46.882"/>
				<g>
					<polygon fill="none" points="14.77,86.872 17.396,86.872 17.396,39.99 14.77,39.99 					"/>
					
						<line fill="none" stroke="#ED1F24" stroke-width="1.0506" stroke-miterlimit="10" x1="15.295" y1="39.99" x2="15.295" y2="86.872"/>
					<line fill="none" x1="17.396" y1="39.99" x2="17.396" y2="86.872"/>
				</g>
			</g>
			<g clip-path="url(#SVGID_2_)">
				<rect x="14.77" y="-6.892" fill="none" width="2.627" height="46.882"/>
				<g>
					<polygon fill="none" points="14.77,39.99 17.396,39.99 17.396,-6.892 14.77,-6.892 					"/>
					
						<line fill="none" stroke="#ED1F24" stroke-width="1.0506" stroke-miterlimit="10" x1="15.295" y1="-6.892" x2="15.295" y2="39.99"/>
					<line fill="none" x1="17.396" y1="-6.892" x2="17.396" y2="39.99"/>
				</g>
			</g>
			<g clip-path="url(#SVGID_2_)">
				<rect x="12.143" y="39.99" fill="none" width="2.627" height="46.882"/>
				<g>
					<polygon fill="none" points="12.143,86.872 14.77,86.872 14.77,39.99 12.143,39.99 					"/>
					
						<line fill="none" stroke="#ED1F24" stroke-width="1.0506" stroke-miterlimit="10" x1="12.668" y1="39.99" x2="12.668" y2="86.872"/>
					<line fill="none" x1="14.77" y1="39.99" x2="14.77" y2="86.872"/>
				</g>
			</g>
			<g clip-path="url(#SVGID_2_)">
				<rect x="12.143" y="-6.892" fill="none" width="2.627" height="46.882"/>
				<g>
					<polygon fill="none" points="12.143,39.99 14.77,39.99 14.77,-6.892 12.143,-6.892 					"/>
					
						<line fill="none" stroke="#ED1F24" stroke-width="1.0506" stroke-miterlimit="10" x1="12.668" y1="-6.892" x2="12.668" y2="39.99"/>
					<line fill="none" x1="14.77" y1="-6.892" x2="14.77" y2="39.99"/>
				</g>
			</g>
			<g clip-path="url(#SVGID_2_)">
				<rect x="9.516" y="39.99" fill="none" width="2.626" height="46.882"/>
				<g>
					<polygon fill="none" points="9.516,86.872 12.143,86.872 12.143,39.99 9.516,39.99 					"/>
					
						<line fill="none" stroke="#ED1F24" stroke-width="1.0506" stroke-miterlimit="10" x1="10.042" y1="39.99" x2="10.042" y2="86.872"/>
					<line fill="none" x1="12.143" y1="39.99" x2="12.143" y2="86.872"/>
				</g>
			</g>
			<g clip-path="url(#SVGID_2_)">
				<rect x="9.516" y="-6.892" fill="none" width="2.626" height="46.882"/>
				<g>
					<polygon fill="none" points="9.516,39.99 12.143,39.99 12.143,-6.892 9.516,-6.892 					"/>
					
						<line fill="none" stroke="#ED1F24" stroke-width="1.0506" stroke-miterlimit="10" x1="10.042" y1="-6.892" x2="10.042" y2="39.99"/>
					<line fill="none" x1="12.143" y1="-6.892" x2="12.143" y2="39.99"/>
				</g>
			</g>
			<g clip-path="url(#SVGID_2_)">
				<rect x="6.89" y="39.99" fill="none" width="2.626" height="46.882"/>
				<g>
					<polygon fill="none" points="6.89,86.872 9.516,86.872 9.516,39.99 6.89,39.99 					"/>
					
						<line fill="none" stroke="#ED1F24" stroke-width="1.0506" stroke-miterlimit="10" x1="7.415" y1="39.99" x2="7.415" y2="86.872"/>
					<line fill="none" x1="9.516" y1="39.99" x2="9.516" y2="86.872"/>
				</g>
			</g>
			<g clip-path="url(#SVGID_2_)">
				<rect x="6.89" y="-6.892" fill="none" width="2.626" height="46.882"/>
				<g>
					<polygon fill="none" points="6.89,39.99 9.516,39.99 9.516,-6.892 6.89,-6.892 					"/>
					
						<line fill="none" stroke="#ED1F24" stroke-width="1.0506" stroke-miterlimit="10" x1="7.415" y1="-6.892" x2="7.415" y2="39.99"/>
					<line fill="none" x1="9.516" y1="-6.892" x2="9.516" y2="39.99"/>
				</g>
			</g>
			<g clip-path="url(#SVGID_2_)">
				<rect x="4.263" y="39.99" fill="none" width="2.626" height="46.882"/>
				<g>
					<polygon fill="none" points="4.263,86.872 6.89,86.872 6.89,39.99 4.263,39.99 					"/>
					
						<line fill="none" stroke="#ED1F24" stroke-width="1.0506" stroke-miterlimit="10" x1="4.789" y1="39.99" x2="4.789" y2="86.872"/>
					<line fill="none" x1="6.89" y1="39.99" x2="6.89" y2="86.872"/>
				</g>
			</g>
			<g clip-path="url(#SVGID_2_)">
				<rect x="4.263" y="-6.892" fill="none" width="2.626" height="46.882"/>
				<g>
					<polygon fill="none" points="4.263,39.99 6.89,39.99 6.89,-6.892 4.263,-6.892 					"/>
					
						<line fill="none" stroke="#ED1F24" stroke-width="1.0506" stroke-miterlimit="10" x1="4.789" y1="-6.892" x2="4.789" y2="39.99"/>
					<line fill="none" x1="6.89" y1="-6.892" x2="6.89" y2="39.99"/>
				</g>
			</g>
			<g clip-path="url(#SVGID_2_)">
				<rect x="1.637" y="39.99" fill="none" width="2.626" height="46.882"/>
				<g>
					<polygon fill="none" points="1.637,86.872 4.263,86.872 4.263,39.99 1.637,39.99 					"/>
					
						<line fill="none" stroke="#ED1F24" stroke-width="1.0506" stroke-miterlimit="10" x1="2.162" y1="39.99" x2="2.162" y2="86.872"/>
					<line fill="none" x1="4.263" y1="39.99" x2="4.263" y2="86.872"/>
				</g>
			</g>
			<g clip-path="url(#SVGID_2_)">
				<rect x="1.637" y="-6.892" fill="none" width="2.626" height="46.882"/>
				<g>
					<polygon fill="none" points="1.637,39.99 4.263,39.99 4.263,-6.892 1.637,-6.892 					"/>
					
						<line fill="none" stroke="#ED1F24" stroke-width="1.0506" stroke-miterlimit="10" x1="2.162" y1="-6.892" x2="2.162" y2="39.99"/>
					<line fill="none" x1="4.263" y1="-6.892" x2="4.263" y2="39.99"/>
				</g>
			</g>
		</g>
	</g>
	<g>
		<g>
			<path fill="#ED1F24" d="M8.736,4.882L8.736,4.882c2.734,0,6.708,1.145,8.901,4.373c2.115,3.111,2.131,7.541,0.047,12.81
				c-3.051,7.711-0.425,10.901,1.686,13.465c1.061,1.289,1.977,2.4,2.043,3.938c0.004,0.098-0.014,0.219-0.167,0.381
				c-0.378,0.395-1.476,0.854-3.322,0.854c-3.476,0-8.011-1.63-10.31-5.271c-2.348-3.719-2.031-8.976,0.914-15.208
				c1.476-1.995,3.074-6.489-1.078-9.825c-1.952-1.567-3.153-3.258-2.92-4.112c0.163-0.595,1.195-1.073,2.833-1.31
				C7.797,4.914,8.26,4.882,8.736,4.882 M8.736,3.882c-0.528,0-1.037,0.036-1.518,0.105c-6.24,0.905-3.382,4.795-0.396,7.193
				c4.565,3.669,0.844,8.525,0.844,8.525c-7.742,16.267,3.491,21.997,10.256,21.997c2.605,0,4.551-0.852,4.488-2.279
				c-0.229-5.266-8.191-5.885-3.797-16.991C23.945,8.955,15.016,3.882,8.736,3.882L8.736,3.882z"/>
		</g>
	</g>
</g>
</svg>
