<?xml version="1.0" encoding="utf-8"?>
<!-- Generator: Adobe Illustrator 15.0.2, SVG Export Plug-In . SVG Version: 6.00 Build 0)  -->
<!DOCTYPE svg PUBLIC "-//W3C//DTD SVG 1.1//EN" "http://www.w3.org/Graphics/SVG/1.1/DTD/svg11.dtd">
<svg version="1.1" id="Layer_1" xmlns="http://www.w3.org/2000/svg" xmlns:xlink="http://www.w3.org/1999/xlink" x="0px" y="0px"
	 width="25px" height="46.131px" viewBox="0 0 25 46.131" enable-background="new 0 0 25 46.131" xml:space="preserve">
<g>
	<g>
		<path fill="#ED1F24" d="M8.046,5.073L8.046,5.073c2.735,0,6.707,1.145,8.901,4.373c2.115,3.111,2.131,7.541,0.047,12.81
			c-3.051,7.711-0.425,10.901,1.685,13.465c1.061,1.289,1.977,2.402,2.043,3.938c0.004,0.098-0.013,0.219-0.167,0.381
			c-0.378,0.395-1.475,0.854-3.323,0.854c-3.475,0-8.01-1.63-10.309-5.271c-2.348-3.717-2.031-8.974,0.914-15.206
			c1.476-1.995,3.075-6.489-1.077-9.826c-1.952-1.568-3.153-3.26-2.919-4.114c0.162-0.595,1.194-1.072,2.832-1.31
			C7.106,5.104,7.569,5.073,8.046,5.073 M8.045,4.073c-0.528,0-1.037,0.036-1.518,0.105c-6.24,0.905-3.381,4.795-0.396,7.193
			c4.565,3.669,0.843,8.526,0.843,8.526c-7.741,16.265,3.491,21.997,10.255,21.997c2.607,0,4.552-0.852,4.489-2.279
			c-0.229-5.266-8.191-5.884-3.797-16.992C23.255,9.145,14.326,4.072,8.045,4.073L8.045,4.073z"/>
	</g>
</g>
</svg>
